<?xml version="1.0" encoding="utf-8"?>
<!DOCTYPE svg PUBLIC "-//W3C//DTD SVG 1.1//EN" "http://www.w3.org/Graphics/SVG/1.1/DTD/svg11.dtd">
<svg version="1.1" xmlns="http://www.w3.org/2000/svg" xmlns:xlink="http://www.w3.org/1999/xlink" viewBox="0 0 2283.714 1892.763" xml:space="preserve">
<view xmlns="http://www.w3.org/2000/svg" id="tightcrop" viewBox="0 0 0 0"/>
<g id="BAK">
	<g>
		<path d="M314.294,1076.104h303.508c50.583,0,89.416,12.526,116.5,37.581c27.078,25.053,40.622,56.074,40.622,93.057
			c0,31.021-9.664,57.623-28.991,79.813c-12.885,14.798-31.736,26.485-56.55,35.075c37.698,9.07,65.436,24.64,83.214,46.707
			c17.772,22.073,26.664,49.812,26.664,83.215c0,27.201-6.325,51.661-18.969,73.371c-12.65,21.715-29.947,38.894-51.897,51.539
			c-13.601,7.874-34.125,13.601-61.56,17.18c-36.507,4.775-60.727,7.158-72.656,7.158H314.294V1076.104z M477.859,1281.902h70.508
			c25.289,0,42.888-4.351,52.792-13.064c9.898-8.707,14.853-21.296,14.853-37.759c0-15.268-4.955-27.201-14.853-35.791
			c-9.904-8.59-27.146-12.885-51.718-12.885h-71.582V1281.902z M477.859,1488.059h82.677c27.917,0,47.602-4.949,59.055-14.853
			c11.453-9.898,17.18-23.203,17.18-39.907c0-15.508-5.67-27.973-17-37.401c-11.336-9.423-31.2-14.138-59.592-14.138h-82.319
			V1488.059z" fill="white"/>
		<path d="M1192.005,1514.187h-184.072l-25.574,86.614H816.814l197.208-524.696h176.853l197.164,524.696h-169.784L1192.005,1514.187
			z M1158.372,1400.729l-57.914-188.618l-57.311,188.618H1158.372z" fill="white"/>
		<path d="M1425.634,1076.104h162.134v198.282l169.833-198.282h215.636l-191.471,198.048l200.061,326.648h-199.663l-110.628-215.78
			l-83.768,87.743v128.037h-162.134V1076.104z" fill="white"/>
	</g>
</g>
<g id="BALLEN">
	<g>
		<path d="M311.594,1039.87H190.597c-17.466,0-29.936-3.399-37.406-10.195c-7.474-6.797-11.209-17.614-11.209-32.461V738.933
			c0-15.154,3.824-26.052,11.479-32.695c7.651-6.64,20.029-9.961,37.136-9.961h128.29c18.906,0,35.289,1.018,49.155,3.047
			c13.863,2.032,26.287,5.94,37.271,11.719c9.36,4.845,17.644,10.979,24.848,18.398c7.199,7.423,12.694,15.626,16.475,24.609
			c3.781,8.987,5.672,18.479,5.672,28.477c0,34.376-19.809,59.531-59.418,75.469c52.033,14.377,78.054,42.345,78.054,83.906
			c0,19.219-5.672,36.526-17.016,51.914c-11.343,15.392-26.649,26.759-45.914,34.102c-12.065,4.376-25.928,7.464-41.593,9.258
			C350.756,1038.973,332.479,1039.87,311.594,1039.87z M222.197,748.542v88.828h73.463c19.986,0,35.422-1.641,46.319-4.922
			c10.892-3.281,19.218-9.529,24.983-18.75c4.499-6.562,6.752-13.905,6.752-22.031c0-17.344-7.115-28.865-21.336-34.57
			c-14.226-5.702-35.921-8.555-65.09-8.555H222.197z M305.652,887.292h-83.456v100.312h86.156c54.194,0,81.295-16.952,81.295-50.859
			c0-17.344-7.022-29.919-21.066-37.734C354.538,891.199,333.56,887.292,305.652,887.292z" fill="white"/>
		<path d="M760.504,1000.964l-18.906-43.125H580.629l-18.906,44.062c-7.385,17.19-13.686,28.792-18.906,34.805
			c-5.225,6.013-13.774,9.023-25.658,9.023c-10.086,0-18.999-3.204-26.739-9.609c-7.744-6.405-11.613-13.671-11.613-21.797
			c0-4.688,0.899-9.528,2.701-14.531c1.798-4.999,4.769-11.953,8.913-20.859l101.281-223.125
			c2.879-6.405,6.347-14.099,10.398-23.086c4.051-8.983,8.372-16.443,12.964-22.383c4.591-5.937,10.621-10.741,18.095-14.414
			c7.469-3.669,16.699-5.508,27.683-5.508c11.163,0,20.48,1.838,27.954,5.508c7.469,3.673,13.504,8.401,18.096,14.18
			c4.591,5.782,8.461,11.993,11.613,18.633c3.148,6.643,7.157,15.509,12.019,26.602l103.441,221.719
			c8.103,16.875,12.154,29.143,12.154,36.797c0,7.969-3.828,15.275-11.479,21.914c-7.655,6.64-16.88,9.961-27.684,9.961
			c-6.305,0-11.707-0.978-16.205-2.93c-4.503-1.956-8.284-4.607-11.344-7.969c-3.064-3.358-6.346-8.515-9.858-15.469
			C766.042,1012.412,763.024,1006.277,760.504,1000.964z M601.696,905.573h118.296l-59.688-141.797L601.696,905.573z" fill="white"/>
		<path d="M950.406,732.604v250.078h162.589c12.964,0,22.911,2.735,29.845,8.203c6.929,5.472,10.398,12.345,10.398,20.625
			c0,8.438-3.423,15.274-10.264,20.508c-6.845,5.237-16.838,7.852-29.979,7.852H919.346c-17.467,0-30.026-3.358-37.677-10.078
			c-7.655-6.716-11.479-17.578-11.479-32.578V732.604c0-14.062,3.646-24.609,10.939-31.641c7.292-7.031,16.88-10.547,28.764-10.547
			c12.061,0,21.831,3.479,29.304,10.43C946.667,707.801,950.406,718.388,950.406,732.604z" fill="white"/>
		<path d="M1251.31,732.604v250.078H1413.9c12.964,0,22.91,2.735,29.844,8.203c6.93,5.472,10.398,12.345,10.398,20.625
			c0,8.438-3.422,15.274-10.263,20.508c-6.845,5.237-16.839,7.852-29.979,7.852h-193.65c-17.466,0-30.025-3.358-37.676-10.078
			c-7.654-6.716-11.479-17.578-11.479-32.578V732.604c0-14.062,3.646-24.609,10.938-31.641c7.293-7.031,16.88-10.547,28.764-10.547
			c12.062,0,21.83,3.479,29.305,10.43C1247.571,707.801,1251.31,718.388,1251.31,732.604z" fill="white"/>
		<path d="M1734.521,749.948h-180.685v84.375h166.371c12.242,0,21.378,2.384,27.413,7.148c6.03,4.768,9.048,11.056,9.048,18.867
			c0,7.815-2.971,14.18-8.912,19.102c-5.942,4.922-15.125,7.383-27.549,7.383h-166.371v97.734h186.897
			c12.602,0,22.101,2.542,28.494,7.617c6.389,5.079,9.587,11.836,9.587,20.273c0,8.126-3.198,14.73-9.587,19.805
			c-6.394,5.079-15.893,7.617-28.494,7.617h-217.957c-17.467,0-30.025-3.358-37.677-10.078
			c-7.655-6.716-11.479-17.578-11.479-32.578V738.933c0-9.998,1.709-18.164,5.132-24.492c3.418-6.328,8.778-10.935,16.069-13.828
			c7.292-2.89,16.61-4.336,27.954-4.336h211.744c12.784,0,22.282,2.461,28.495,7.383c6.212,4.922,9.316,11.367,9.316,19.336
			c0,8.126-3.104,14.648-9.316,19.57C1756.803,747.487,1747.305,749.948,1734.521,749.948z" fill="white"/>
		<path d="M1913.889,732.136l154.217,202.5V730.261c0-13.279,3.284-23.24,9.858-29.883c6.57-6.64,15.437-9.961,26.603-9.961
			c11.521,0,20.615,3.321,27.279,9.961c6.659,6.643,9.992,16.604,9.992,29.883v270.234c0,30.157-14.406,45.234-43.213,45.234
			c-7.203,0-13.686-0.901-19.445-2.695c-5.765-1.798-11.166-4.647-16.205-8.555c-5.044-3.903-9.724-8.474-14.045-13.711
			c-4.321-5.233-8.643-10.583-12.964-16.055l-150.437-200.156v201.328c0,13.125-3.511,23.05-10.533,29.766
			c-7.021,6.716-16.027,10.078-27.008,10.078c-11.344,0-20.438-3.398-27.278-10.195c-6.846-6.797-10.263-16.677-10.263-29.648
			V740.808c0-11.25,1.438-20.076,4.32-26.484c3.419-7.031,9.09-12.773,17.016-17.227c7.921-4.453,16.476-6.68,25.657-6.68
			c7.199,0,13.369,1.018,18.502,3.047c5.131,2.032,9.629,4.768,13.504,8.203c3.87,3.439,7.832,7.892,11.883,13.359
			C1905.381,720.498,1909.566,726.199,1913.889,732.136z" fill="white"/>
	</g>
</g>
<g id="DE">
	<g>
		<path d="M310.567,140.919h415.078c81.812,0,147.906,6.25,198.281,18.75c50.359,12.5,91.984,30.453,124.891,53.828
			c32.891,23.375,56.734,50.578,71.547,81.594c14.797,31.016,22.204,63.875,22.204,98.594c0,54.406-11.001,96.594-33.001,126.563
			c-22,29.969-52.531,55.094-91.594,75.344c-39.062,20.25-81,33.734-125.812,40.438c-61.266,9.266-116.766,13.891-166.516,13.891
			H310.567V140.919z M589.567,255.919v278h68.469c58.375,0,99.906-3.641,124.578-10.922c24.672-7.281,44-20.016,57.984-38.188
			c13.969-18.156,20.969-47.609,20.969-88.328c0-53.906-15.625-90.797-46.875-110.703c-31.25-19.906-83.062-29.859-155.422-29.859
			H589.567z" fill="white"/>
		<path d="M1213.448,140.919h748v109h-468v81h435v104h-435v100h482v115h-762V140.919z" fill="white"/>
	</g>
</g>
<g id="vorm">
	<polyline points="258.946,140.982 141.982,140.982 141.982,658.918 258.946,658.918 258.946,140.982 	" fill="white"/>
	<polyline points="2140.731,140.982 2023.768,140.982 2023.768,649.919 2140.731,649.919 2140.731,140.982 	" fill="white"/>
	<polyline points="141.982,1075.865 258.946,1076.104 258.946,1629.656 2023.768,1632.713 2023.768,1076.104 2141.732,1075.865
		2141.732,1750.781 141.982,1750.781 	" fill="white"/>
</g>
</svg>
